<svg width="58" height="58" viewBox="0 0 58 58" fill="none" xmlns="http://www.w3.org/2000/svg">
<g filter="url(#filter0_d_1654_940)">
<rect x="4" width="50" height="50" rx="5" fill="white"/>
</g>
<path d="M14.2929 25.7071C13.9024 25.3166 13.9024 24.6834 14.2929 24.2929L20.6569 17.9289C21.0474 17.5384 21.6805 17.5384 22.0711 17.9289C22.4616 18.3195 22.4616 18.9526 22.0711 19.3431L16.4142 25L22.0711 30.6569C22.4616 31.0474 22.4616 31.6805 22.0711 32.0711C21.6805 32.4616 21.0474 32.4616 20.6569 32.0711L14.2929 25.7071ZM43 26L15 26L15 24L43 24L43 26Z" fill="url(#paint0_linear_1654_940)"/>
<defs>
<filter id="filter0_d_1654_940" x="0" y="0" width="58" height="58" filterUnits="userSpaceOnUse" color-interpolation-filters="sRGB">
<feFlood flood-opacity="0" result="BackgroundImageFix"/>
<feColorMatrix in="SourceAlpha" type="matrix" values="0 0 0 0 0 0 0 0 0 0 0 0 0 0 0 0 0 0 127 0" result="hardAlpha"/>
<feOffset dy="4"/>
<feGaussianBlur stdDeviation="2"/>
<feComposite in2="hardAlpha" operator="out"/>
<feColorMatrix type="matrix" values="0 0 0 0 0 0 0 0 0 0 0 0 0 0 0 0 0 0 0.25 0"/>
<feBlend mode="normal" in2="BackgroundImageFix" result="effect1_dropShadow_1654_940"/>
<feBlend mode="normal" in="SourceGraphic" in2="effect1_dropShadow_1654_940" result="shape"/>
</filter>
<linearGradient id="paint0_linear_1654_940" x1="33.0914" y1="25.5064" x2="27.495" y2="31.1831" gradientUnits="userSpaceOnUse">
<stop stop-color="#EA7A3A"/>
<stop offset="1" stop-color="#F1A02D"/>
</linearGradient>
</defs>
</svg>
