<svg width="58" height="58" viewBox="0 0 58 58" fill="none" xmlns="http://www.w3.org/2000/svg">
<g filter="url(#filter0_d_1704_2)">
<rect x="4" width="50" height="50" rx="5" fill="white"/>
</g>
<path d="M43.7071 25.7071C44.0976 25.3166 44.0976 24.6834 43.7071 24.2929L37.3431 17.9289C36.9526 17.5384 36.3195 17.5384 35.9289 17.9289C35.5384 18.3195 35.5384 18.9526 35.9289 19.3431L41.5858 25L35.9289 30.6569C35.5384 31.0474 35.5384 31.6805 35.9289 32.0711C36.3195 32.4616 36.9526 32.4616 37.3431 32.0711L43.7071 25.7071ZM15 26L43 26L43 24L15 24L15 26Z" fill="url(#paint0_linear_1704_2)"/>
<defs>
<filter id="filter0_d_1704_2" x="0" y="0" width="58" height="58" filterUnits="userSpaceOnUse" color-interpolation-filters="sRGB">
<feFlood flood-opacity="0" result="BackgroundImageFix"/>
<feColorMatrix in="SourceAlpha" type="matrix" values="0 0 0 0 0 0 0 0 0 0 0 0 0 0 0 0 0 0 127 0" result="hardAlpha"/>
<feOffset dy="4"/>
<feGaussianBlur stdDeviation="2"/>
<feComposite in2="hardAlpha" operator="out"/>
<feColorMatrix type="matrix" values="0 0 0 0 0 0 0 0 0 0 0 0 0 0 0 0 0 0 0.25 0"/>
<feBlend mode="normal" in2="BackgroundImageFix" result="effect1_dropShadow_1704_2"/>
<feBlend mode="normal" in="SourceGraphic" in2="effect1_dropShadow_1704_2" result="shape"/>
</filter>
<linearGradient id="paint0_linear_1704_2" x1="24.9086" y1="25.5064" x2="30.505" y2="31.1831" gradientUnits="userSpaceOnUse">
<stop stop-color="#EA7A3A"/>
<stop offset="1" stop-color="#F1A02D"/>
</linearGradient>
</defs>
</svg>
