<svg width="410" height="40" viewBox="0 0 410 40" fill="none" xmlns="http://www.w3.org/2000/svg">
<path d="M12.472 38.19L12.1121 39.123L12.1166 39.1247L12.472 38.19ZM5.884 34.086L5.19114 34.8071L5.1982 34.8138L5.884 34.086ZM1.564 27.876L0.643343 28.2666L0.64848 28.2783L1.564 27.876ZM1.564 12.324L0.648406 11.9217L0.643418 11.9334L1.564 12.324ZM5.938 6.114L5.2522 5.38621L5.938 6.114ZM12.526 2.01L12.1661 1.07699H12.1661L12.526 2.01ZM28.942 2.01L28.5776 2.94125L28.5821 2.943L28.942 2.01ZM35.476 6.114L34.7831 6.83514L34.7902 6.84179L35.476 6.114ZM39.85 12.324L38.9345 12.7263L38.9368 12.7314L39.85 12.324ZM39.85 27.93L40.7655 28.3323L40.7677 28.3272L39.85 27.93ZM35.476 34.14L36.1614 34.8682L36.1618 34.8678L35.476 34.14ZM28.942 38.19L28.5821 37.257L28.5776 37.2588L28.942 38.19ZM25.378 31.332L25.0066 30.4035L24.9984 30.4068L25.378 31.332ZM29.158 28.848L28.4509 28.1409H28.4509L29.158 28.848ZM31.642 25.014L30.7183 24.631L30.7142 24.6407L30.7104 24.6505L31.642 25.014ZM31.642 15.186L30.7104 15.5495L30.7142 15.5593L30.7183 15.569L31.642 15.186ZM29.158 11.352L28.439 12.047L28.4449 12.0531L28.4509 12.0591L29.158 11.352ZM25.432 8.868L25.0606 9.79647L25.0606 9.79648L25.432 8.868ZM16.036 8.868L15.6646 7.93949L15.6564 7.94283L16.036 8.868ZM12.31 11.352L13.0171 12.0591L12.31 11.352ZM9.772 15.186L8.84826 14.803L8.84424 14.8127L8.84042 14.8225L9.772 15.186ZM9.772 25.014L8.83751 25.37L8.84269 25.3836L8.84826 25.397L9.772 25.014ZM12.256 28.848L11.537 29.543L11.5429 29.5491L11.5489 29.5551L12.256 28.848ZM16.036 31.332L16.4074 30.4035L16.036 31.332ZM20.788 38.648C17.9102 38.648 15.2598 38.1803 12.8274 37.2553L12.1166 39.1247C14.7962 40.1437 17.6898 40.648 20.788 40.648V38.648ZM12.8319 37.257C10.4266 36.3293 8.3428 35.0289 6.5698 33.3582L5.1982 34.8138C7.1692 36.6711 9.47736 38.1067 12.1121 39.123L12.8319 37.257ZM6.57683 33.3649C4.83706 31.6934 3.47191 29.7323 2.47952 27.4737L0.64848 28.2783C1.74409 30.7717 3.25894 32.9506 5.19117 34.8071L6.57683 33.3649ZM2.48458 27.4855C1.53345 25.2435 1.052 22.7857 1.052 20.1H-0.948C-0.948 23.0303 -0.421447 25.7565 0.643418 28.2665L2.48458 27.4855ZM1.052 20.1C1.052 17.4143 1.53345 14.9565 2.48458 12.7145L0.643418 11.9334C-0.421447 14.4435 -0.948 17.1697 -0.948 20.1H1.052ZM2.47952 12.7263C3.47005 10.472 4.85033 8.51295 6.6238 6.84179L5.2522 5.38621C3.28167 7.24305 1.74595 9.42404 0.648481 11.9217L2.47952 12.7263ZM6.6238 6.84179C8.3968 5.17108 10.4806 3.87073 12.8859 2.943L12.1661 1.07699C9.53137 2.09326 7.2232 3.52892 5.2522 5.38621L6.6238 6.84179ZM12.8859 2.943C15.2808 2.01923 17.8936 1.552 20.734 1.552V-0.448001C17.6704 -0.448001 14.8112 0.0567665 12.1661 1.07699L12.8859 2.943ZM20.734 1.552C23.6122 1.552 26.2229 2.01982 28.5776 2.94124L29.3064 1.07875C26.6931 0.05618 23.8318 -0.448001 20.734 -0.448001V1.552ZM28.5821 2.943C30.9858 3.87014 33.0487 5.16867 34.7832 6.8351L36.1688 5.39289C34.2313 3.53133 31.9382 2.09386 29.3019 1.07699L28.5821 2.943ZM34.7902 6.84179C36.5637 8.51295 37.944 10.472 38.9345 12.7263L40.7655 11.9217C39.6681 9.42404 38.1323 7.24305 36.1618 5.38621L34.7902 6.84179ZM38.9368 12.7314C39.9176 14.9298 40.416 17.3809 40.416 20.1H42.416C42.416 17.1311 41.8704 14.3982 40.7632 11.9166L38.9368 12.7314ZM40.416 20.1C40.416 22.7808 39.9184 25.2546 38.9323 27.5328L40.7677 28.3272C41.8696 25.7814 42.416 23.0352 42.416 20.1H40.416ZM38.9345 27.5277C37.944 29.782 36.5637 31.7411 34.7902 33.4122L36.1618 34.8678C38.1323 33.0109 39.6681 30.83 40.7655 28.3323L38.9345 27.5277ZM34.7906 33.4118C33.0554 35.0449 30.9901 36.3282 28.5821 37.257L29.3019 39.123C31.9339 38.1078 34.2246 36.6911 36.1614 34.8682L34.7906 33.4118ZM28.5776 37.2588C26.2215 38.1807 23.6286 38.648 20.788 38.648V40.648C23.8514 40.648 26.6945 40.1433 29.3064 39.1212L28.5776 37.2588ZM20.734 33.196C22.5412 33.196 24.22 32.888 25.7576 32.2572L24.9984 30.4068C23.728 30.928 22.3108 31.196 20.734 31.196V33.196ZM25.7494 32.2605C27.3131 31.635 28.6878 30.7324 29.8651 29.5551L28.4509 28.1409C27.4682 29.1236 26.3229 29.877 25.0066 30.4035L25.7494 32.2605ZM29.8651 29.5551C31.0466 28.3737 31.9492 26.9774 32.5736 25.3775L30.7104 24.6505C30.1828 26.0026 29.4295 27.1623 28.4509 28.1409L29.8651 29.5551ZM32.5657 25.397C33.2341 23.7852 33.56 22.0149 33.56 20.1H31.56C31.56 21.7851 31.2739 23.2908 30.7183 24.631L32.5657 25.397ZM33.56 20.1C33.56 18.1851 33.2341 16.4148 32.5657 14.803L30.7183 15.569C31.2739 16.9092 31.56 18.4149 31.56 20.1H33.56ZM32.5736 14.8225C31.9492 13.2226 31.0466 11.8263 29.8651 10.6449L28.4509 12.0591C29.4295 13.0377 30.1828 14.1974 30.7104 15.5495L32.5736 14.8225ZM29.877 10.657C28.7317 9.47217 27.3701 8.56619 25.8034 7.93952L25.0606 9.79648C26.3739 10.3218 27.4963 11.0718 28.439 12.047L29.877 10.657ZM25.8034 7.93952C24.2349 7.31214 22.5416 7.004 20.734 7.004V9.004C22.3104 9.004 23.7491 9.27186 25.0606 9.79647L25.8034 7.93952ZM20.734 7.004C18.9264 7.004 17.2331 7.31214 15.6646 7.93952L16.4074 9.79647C17.7189 9.27186 19.1576 9.004 20.734 9.004V7.004ZM15.6564 7.94283C14.1291 8.56944 12.7759 9.47185 11.6029 10.6449L13.0171 12.0591C14.0041 11.0721 15.1349 10.3186 16.4156 9.79317L15.6564 7.94283ZM11.6029 10.6449C10.4259 11.8219 9.50815 13.2115 8.84826 14.803L10.6957 15.569C11.2599 14.2085 12.0341 13.0421 13.0171 12.0591L11.6029 10.6449ZM8.84042 14.8225C8.21348 16.429 7.908 18.1924 7.908 20.1H9.908C9.908 18.4076 10.1785 16.895 10.7036 15.5495L8.84042 14.8225ZM7.908 20.1C7.908 21.9747 8.21445 23.7345 8.83751 25.37L10.7065 24.658C10.1776 23.2695 9.908 21.7533 9.908 20.1H7.908ZM8.84826 25.397C9.50523 26.9815 10.4003 28.3672 11.537 29.543L12.975 28.153C12.0237 27.1688 11.2628 25.9985 10.6957 24.631L8.84826 25.397ZM11.5489 29.5551C12.7262 30.7324 14.1009 31.635 15.6646 32.2605L16.4074 30.4035C15.0911 29.877 13.9458 29.1236 12.9631 28.1409L11.5489 29.5551ZM15.6646 32.2605C17.2331 32.8879 18.9264 33.196 20.734 33.196V31.196C19.1576 31.196 17.7189 30.9281 16.4074 30.4035L15.6646 32.2605ZM87.91 39L87.0704 39.5431L87.3659 40H87.91V39ZM76.138 20.802L75.6216 19.9457L74.7378 20.4786L75.2984 21.3451L76.138 20.802ZM83.212 16.536L84.0499 15.9902L83.5227 15.1809L82.6956 15.6797L83.212 16.536ZM97.846 39V40H99.6909L98.6839 38.4542L97.846 39ZM63.34 39H62.34V40H63.34V39ZM63.34 1.2V0.199997H62.34V1.2H63.34ZM72.034 1.2H73.034V0.199997H72.034V1.2ZM72.034 39V40H73.034V39H72.034ZM69.496 23.772H68.496V24.772H69.496V23.772ZM69.496 16.482V15.482H68.496V16.482H69.496ZM82.672 16.482H83.672V15.482H82.672V16.482ZM82.672 23.772V24.772H83.672V23.772H82.672ZM84.022 21.072L83.9021 22.0648L84.5081 22.138L84.8502 21.6324L84.022 21.072ZM75.976 20.1L75.137 19.5559L74.2649 20.9006L75.8561 21.0928L75.976 20.1ZM88.234 1.2V0.199997H87.6907L87.395 0.655852L88.234 1.2ZM97.468 1.2L98.2962 1.7604L99.352 0.199997H97.468V1.2ZM88.7496 38.4569L76.9776 20.2589L75.2984 21.3451L87.0704 39.5431L88.7496 38.4569ZM76.6544 21.6583L83.7284 17.3923L82.6956 15.6797L75.6216 19.9457L76.6544 21.6583ZM82.3741 17.0818L97.0081 39.5458L98.6839 38.4542L84.0499 15.9902L82.3741 17.0818ZM97.846 38H87.91V40H97.846V38ZM64.34 39V1.2H62.34V39H64.34ZM63.34 2.2H72.034V0.199997H63.34V2.2ZM71.034 1.2V39H73.034V1.2H71.034ZM72.034 38H63.34V40H72.034V38ZM70.496 23.772V16.482H68.496V23.772H70.496ZM69.496 17.482H82.672V15.482H69.496V17.482ZM81.672 16.482V23.772H83.672V16.482H81.672ZM82.672 22.772H69.496V24.772H82.672V22.772ZM84.1419 20.0792L76.0959 19.1072L75.8561 21.0928L83.9021 22.0648L84.1419 20.0792ZM76.815 20.6441L89.073 1.74414L87.395 0.655852L75.137 19.5559L76.815 20.6441ZM88.234 2.2H97.468V0.199997H88.234V2.2ZM96.6398 0.639597L83.1938 20.5116L84.8502 21.6324L98.2962 1.7604L96.6398 0.639597ZM111.56 38.19L111.2 39.123L111.204 39.1247L111.56 38.19ZM104.972 34.086L104.279 34.8071L104.286 34.8138L104.972 34.086ZM100.652 27.876L99.7312 28.2666L99.7364 28.2783L100.652 27.876ZM100.652 12.324L99.7363 11.9217L99.7313 11.9334L100.652 12.324ZM105.026 6.114L104.34 5.38621L105.026 6.114ZM111.614 2.01L111.254 1.07699L111.614 2.01ZM128.03 2.01L127.665 2.94125L127.67 2.943L128.03 2.01ZM134.564 6.114L133.871 6.83514L133.878 6.84179L134.564 6.114ZM138.938 12.324L138.022 12.7263L138.025 12.7314L138.938 12.324ZM138.938 27.93L139.853 28.3323L139.856 28.3272L138.938 27.93ZM134.564 34.14L135.249 34.8682L135.25 34.8678L134.564 34.14ZM128.03 38.19L127.67 37.257L127.665 37.2588L128.03 38.19ZM124.466 31.332L124.094 30.4035L124.086 30.4068L124.466 31.332ZM128.246 28.848L127.539 28.1409L128.246 28.848ZM130.73 25.014L129.806 24.631L129.802 24.6407L129.798 24.6505L130.73 25.014ZM130.73 15.186L129.798 15.5495L129.802 15.5593L129.806 15.569L130.73 15.186ZM128.246 11.352L127.527 12.047L127.533 12.0531L127.539 12.0591L128.246 11.352ZM124.52 8.868L124.148 9.79647V9.79648L124.52 8.868ZM115.124 8.868L114.752 7.93949L114.744 7.94283L115.124 8.868ZM111.398 11.352L112.105 12.0591L111.398 11.352ZM108.86 15.186L107.936 14.803L107.932 14.8127L107.928 14.8225L108.86 15.186ZM108.86 25.014L107.925 25.37L107.931 25.3836L107.936 25.397L108.86 25.014ZM111.344 28.848L110.625 29.543L110.631 29.5491L110.637 29.5551L111.344 28.848ZM115.124 31.332L115.495 30.4035L115.124 31.332ZM119.876 38.648C116.998 38.648 114.348 38.1803 111.915 37.2553L111.204 39.1247C113.884 40.1437 116.778 40.648 119.876 40.648V38.648ZM111.92 37.257C109.515 36.3293 107.431 35.0289 105.658 33.3582L104.286 34.8138C106.257 36.6711 108.565 38.1067 111.2 39.123L111.92 37.257ZM105.665 33.3649C103.925 31.6934 102.56 29.7323 101.567 27.4737L99.7364 28.2783C100.832 30.7717 102.347 32.9506 104.279 34.8071L105.665 33.3649ZM101.572 27.4855C100.621 25.2435 100.14 22.7857 100.14 20.1H98.1399C98.1399 23.0303 98.6664 25.7565 99.7313 28.2665L101.572 27.4855ZM100.14 20.1C100.14 17.4143 100.621 14.9565 101.572 12.7145L99.7313 11.9334C98.6664 14.4435 98.1399 17.1697 98.1399 20.1H100.14ZM101.567 12.7263C102.558 10.472 103.938 8.51295 105.712 6.84179L104.34 5.38621C102.37 7.24305 100.834 9.42404 99.7364 11.9217L101.567 12.7263ZM105.712 6.84179C107.485 5.17108 109.569 3.87073 111.974 2.943L111.254 1.07699C108.619 2.09326 106.311 3.52892 104.34 5.38621L105.712 6.84179ZM111.974 2.943C114.369 2.01923 116.981 1.552 119.822 1.552V-0.448001C116.758 -0.448001 113.899 0.0567665 111.254 1.07699L111.974 2.943ZM119.822 1.552C122.7 1.552 125.311 2.01982 127.665 2.94124L128.394 1.07875C125.781 0.05618 122.92 -0.448001 119.822 -0.448001V1.552ZM127.67 2.943C130.074 3.87014 132.137 5.16867 133.871 6.8351L135.257 5.39289C133.319 3.53133 131.026 2.09386 128.39 1.07699L127.67 2.943ZM133.878 6.84179C135.652 8.51295 137.032 10.472 138.022 12.7263L139.853 11.9217C138.756 9.42404 137.22 7.24305 135.25 5.38621L133.878 6.84179ZM138.025 12.7314C139.005 14.9298 139.504 17.3809 139.504 20.1H141.504C141.504 17.1311 140.958 14.3982 139.851 11.9166L138.025 12.7314ZM139.504 20.1C139.504 22.7808 139.006 25.2546 138.02 27.5328L139.856 28.3272C140.958 25.7814 141.504 23.0352 141.504 20.1H139.504ZM138.022 27.5277C137.032 29.782 135.652 31.7411 133.878 33.4122L135.25 34.8678C137.22 33.0109 138.756 30.83 139.853 28.3323L138.022 27.5277ZM133.879 33.4118C132.143 35.0449 130.078 36.3282 127.67 37.257L128.39 39.123C131.022 38.1078 133.312 36.6911 135.249 34.8682L133.879 33.4118ZM127.665 37.2588C125.309 38.1807 122.716 38.648 119.876 38.648V40.648C122.939 40.648 125.782 40.1433 128.394 39.1212L127.665 37.2588ZM119.822 33.196C121.629 33.196 123.308 32.888 124.845 32.2572L124.086 30.4068C122.816 30.928 121.399 31.196 119.822 31.196V33.196ZM124.837 32.2605C126.401 31.635 127.776 30.7324 128.953 29.5551L127.539 28.1409C126.556 29.1236 125.411 29.877 124.095 30.4035L124.837 32.2605ZM128.953 29.5551C130.134 28.3737 131.037 26.9774 131.661 25.3775L129.798 24.6505C129.271 26.0026 128.517 27.1623 127.539 28.1409L128.953 29.5551ZM131.654 25.397C132.322 23.7852 132.648 22.0149 132.648 20.1H130.648C130.648 21.7851 130.362 23.2908 129.806 24.631L131.654 25.397ZM132.648 20.1C132.648 18.1851 132.322 16.4148 131.654 14.803L129.806 15.569C130.362 16.9092 130.648 18.4149 130.648 20.1H132.648ZM131.661 14.8225C131.037 13.2226 130.134 11.8263 128.953 10.6449L127.539 12.0591C128.517 13.0377 129.271 14.1974 129.798 15.5495L131.661 14.8225ZM128.965 10.657C127.82 9.47217 126.458 8.56619 124.891 7.93952L124.148 9.79648C125.462 10.3218 126.584 11.0718 127.527 12.047L128.965 10.657ZM124.891 7.93952C123.323 7.31214 121.629 7.004 119.822 7.004V9.004C121.398 9.004 122.837 9.27186 124.148 9.79647L124.891 7.93952ZM119.822 7.004C118.014 7.004 116.321 7.31214 114.753 7.93952L115.495 9.79647C116.807 9.27186 118.245 9.004 119.822 9.004V7.004ZM114.744 7.94283C113.217 8.56944 111.864 9.47185 110.691 10.6449L112.105 12.0591C113.092 11.0721 114.223 10.3186 115.503 9.79317L114.744 7.94283ZM110.691 10.6449C109.514 11.8219 108.596 13.2115 107.936 14.803L109.784 15.569C110.348 14.2085 111.122 13.0421 112.105 12.0591L110.691 10.6449ZM107.928 14.8225C107.301 16.429 106.996 18.1924 106.996 20.1H108.996C108.996 18.4076 109.266 16.895 109.791 15.5495L107.928 14.8225ZM106.996 20.1C106.996 21.9747 107.302 23.7345 107.925 25.37L109.794 24.658C109.265 23.2695 108.996 21.7533 108.996 20.1H106.996ZM107.936 25.397C108.593 26.9815 109.488 28.3672 110.625 29.543L112.063 28.153C111.112 27.1688 110.351 25.9985 109.784 24.631L107.936 25.397ZM110.637 29.5551C111.814 30.7324 113.189 31.635 114.753 32.2605L115.495 30.4035C114.179 29.877 113.034 29.1236 112.051 28.1409L110.637 29.5551ZM114.753 32.2605C116.321 32.8879 118.014 33.196 119.822 33.196V31.196C118.245 31.196 116.807 30.9281 115.495 30.4035L114.753 32.2605ZM147.243 39H146.243V40H147.243V39ZM147.243 1.2V0.199997H146.243V1.2H147.243ZM154.479 1.2L155.335 0.683464L155.044 0.199997H154.479V1.2ZM170.571 27.876V28.876H172.342L171.427 27.3595L170.571 27.876ZM166.737 27.876L165.877 27.3659L164.981 28.876H166.737V27.876ZM182.559 1.2V0.199997H181.989L181.699 0.689861L182.559 1.2ZM189.795 1.2L190.795 1.19857L190.794 0.199997H189.795V1.2ZM189.849 39V40H190.85L190.849 38.9986L189.849 39ZM181.641 39L180.641 39.0021L180.643 40H181.641V39ZM181.587 13.782V12.782H180.585L180.587 13.7841L181.587 13.782ZM183.153 13.782L184.011 14.2952L184.916 12.782H183.153V13.782ZM170.463 35.004V36.004H171.03L171.321 35.5172L170.463 35.004ZM166.575 35.004L165.721 35.5252L166.014 36.004H166.575V35.004ZM153.615 13.782V12.782H151.833L152.761 14.3032L153.615 13.782ZM155.451 13.782H156.451V12.782H155.451V13.782ZM155.451 39V40H156.451V39H155.451ZM148.243 39V1.2H146.243V39H148.243ZM147.243 2.2H154.479V0.199997H147.243V2.2ZM153.623 1.71653L169.715 28.3925L171.427 27.3595L155.335 0.683464L153.623 1.71653ZM170.571 26.876H166.737V28.876H170.571V26.876ZM167.597 28.3861L183.419 1.71013L181.699 0.689861L165.877 27.3659L167.597 28.3861ZM182.559 2.2H189.795V0.199997H182.559V2.2ZM188.795 1.20143L188.849 39.0014L190.849 38.9986L190.795 1.19857L188.795 1.20143ZM189.849 38H181.641V40H189.849V38ZM182.641 38.9979L182.587 13.7799L180.587 13.7841L180.641 39.0021L182.641 38.9979ZM181.587 14.782H183.153V12.782H181.587V14.782ZM182.295 13.2688L169.605 34.4908L171.321 35.5172L184.011 14.2952L182.295 13.2688ZM170.463 34.004H166.575V36.004H170.463V34.004ZM167.428 34.4828L154.468 13.2608L152.761 14.3032L165.721 35.5252L167.428 34.4828ZM153.615 14.782H155.451V12.782H153.615V14.782ZM154.451 13.782V39H156.451V13.782H154.451ZM155.451 38H147.243V40H155.451V38ZM199.239 39H198.239V40H199.239V39ZM199.239 1.2V0.199997H198.239V1.2H199.239ZM233.691 1.2H234.691V0.199997H233.691V1.2ZM233.691 39V40H234.691V39H233.691ZM224.997 39H223.997V40H224.997V39ZM224.997 6.33L225.704 5.62289L223.997 3.91579V6.33H224.997ZM226.995 8.328V9.328H229.409L227.702 7.62089L226.995 8.328ZM205.935 8.328L205.228 7.62089L203.521 9.328H205.935V8.328ZM207.933 6.33H208.933V3.91579L207.226 5.62289L207.933 6.33ZM207.933 39V40H208.933V39H207.933ZM200.239 39V1.2H198.239V39H200.239ZM199.239 2.2H233.691V0.199997H199.239V2.2ZM232.691 1.2V39H234.691V1.2H232.691ZM233.691 38H224.997V40H233.691V38ZM225.997 39V6.33H223.997V39H225.997ZM224.29 7.03711L226.288 9.03511L227.702 7.62089L225.704 5.62289L224.29 7.03711ZM226.995 7.328H205.935V9.328H226.995V7.328ZM206.642 9.03511L208.64 7.03711L207.226 5.62289L205.228 7.62089L206.642 9.03511ZM206.933 6.33V39H208.933V6.33H206.933ZM207.933 38H199.239V40H207.933V38ZM238.795 39L237.882 38.5929L237.255 40H238.795V39ZM255.643 1.2V0.199997H254.994L254.73 0.792891L255.643 1.2ZM264.283 1.2L265.196 0.791803L264.932 0.199997H264.283V1.2ZM281.185 39V40H282.728L282.098 38.5918L281.185 39ZM272.005 39L271.081 39.3827L271.337 40H272.005V39ZM258.181 5.628V4.628H256.685L257.257 6.0107L258.181 5.628ZM261.637 5.628L262.561 6.01198L263.136 4.628H261.637V5.628ZM247.759 39V40H248.426L248.683 39.384L247.759 39ZM247.219 30.9L246.275 30.57L245.81 31.9H247.219V30.9ZM249.541 24.258V23.258H248.832L248.597 23.928L249.541 24.258ZM268.981 24.258L269.923 23.9212L269.686 23.258H268.981V24.258ZM271.357 30.9V31.9H272.777L272.299 30.5632L271.357 30.9ZM239.709 39.4071L256.557 1.6071L254.73 0.792891L237.882 38.5929L239.709 39.4071ZM255.643 2.2H264.283V0.199997H255.643V2.2ZM263.37 1.60819L280.272 39.4082L282.098 38.5918L265.196 0.791803L263.37 1.60819ZM281.185 38H272.005V40H281.185V38ZM272.929 38.6173L259.105 5.24529L257.257 6.0107L271.081 39.3827L272.929 38.6173ZM258.181 6.628H261.637V4.628H258.181V6.628ZM260.714 5.24402L246.836 38.616L248.683 39.384L262.561 6.01198L260.714 5.24402ZM247.759 38H238.795V40H247.759V38ZM248.163 31.23L250.485 24.588L248.597 23.928L246.275 30.57L248.163 31.23ZM249.541 25.258H268.981V23.258H249.541V25.258ZM268.04 24.5948L270.416 31.2368L272.299 30.5632L269.923 23.9212L268.04 24.5948ZM271.357 29.9H247.219V31.9H271.357V29.9ZM312.118 1.2V0.199997H311.118V1.2H312.118ZM320.866 1.2H321.866V0.199997H320.866V1.2ZM320.866 39V40H321.866V39H320.866ZM312.118 39H311.118V40H312.118V39ZM294.946 39V40H295.946V39H294.946ZM286.198 39H285.198V40H286.198V39ZM286.198 1.2V0.199997H285.198V1.2H286.198ZM294.946 1.2H295.946V0.199997H294.946V1.2ZM312.766 23.502V24.502H313.766V23.502H312.766ZM294.298 23.502H293.298V24.502H294.298V23.502ZM294.298 16.104V15.104H293.298V16.104H294.298ZM312.766 16.104H313.766V15.104H312.766V16.104ZM312.118 2.2H320.866V0.199997H312.118V2.2ZM319.866 1.2V39H321.866V1.2H319.866ZM320.866 38H312.118V40H320.866V38ZM313.118 39V1.2H311.118V39H313.118ZM294.946 38H286.198V40H294.946V38ZM287.198 39V1.2H285.198V39H287.198ZM286.198 2.2H294.946V0.199997H286.198V2.2ZM293.946 1.2V39H295.946V1.2H293.946ZM312.766 22.502H294.298V24.502H312.766V22.502ZM295.298 23.502V16.104H293.298V23.502H295.298ZM294.298 17.104H312.766V15.104H294.298V17.104ZM311.766 16.104V23.502H313.766V16.104H311.766ZM330.337 39H329.337V40H330.337V39ZM330.337 1.2V0.199997H329.337V1.2H330.337ZM339.031 1.2H340.031V0.199997H339.031V1.2ZM339.031 25.824H338.031V28.8816L339.837 26.4149L339.031 25.824ZM357.067 1.2V0.199997H356.56L356.26 0.609094L357.067 1.2ZM365.275 1.2H366.275V0.199997H365.275V1.2ZM365.275 39V40H366.275V39H365.275ZM356.635 39H355.635V40H356.635V39ZM356.635 14.43H357.635V11.3778L355.829 13.8383L356.635 14.43ZM338.599 39V40H339.105L339.405 39.5917L338.599 39ZM331.337 39V1.2H329.337V39H331.337ZM330.337 2.2H339.031V0.199997H330.337V2.2ZM338.031 1.2V25.824H340.031V1.2H338.031ZM339.837 26.4149L357.873 1.7909L356.26 0.609094L338.224 25.2331L339.837 26.4149ZM357.067 2.2H365.275V0.199997H357.067V2.2ZM364.275 1.2V39H366.275V1.2H364.275ZM365.275 38H356.635V40H365.275V38ZM357.635 39V14.43H355.635V39H357.635ZM355.829 13.8383L337.793 38.4083L339.405 39.5917L357.441 15.0217L355.829 13.8383ZM338.599 38H330.337V40H338.599V38ZM374.686 39H373.686V40H374.686V39ZM374.686 1.2V0.199997H373.686V1.2H374.686ZM383.38 1.2H384.38V0.199997H383.38V1.2ZM383.38 25.824H382.38V28.8816L384.187 26.4149L383.38 25.824ZM401.416 1.2V0.199997H400.909L400.61 0.609094L401.416 1.2ZM409.624 1.2H410.624V0.199997H409.624V1.2ZM409.624 39V40H410.624V39H409.624ZM400.984 39H399.984V40H400.984V39ZM400.984 14.43H401.984V11.3778L400.178 13.8383L400.984 14.43ZM382.948 39V40H383.455L383.754 39.5917L382.948 39ZM375.686 39V1.2H373.686V39H375.686ZM374.686 2.2H383.38V0.199997H374.686V2.2ZM382.38 1.2V25.824H384.38V1.2H382.38ZM384.187 26.4149L402.223 1.7909L400.61 0.609094L382.574 25.2331L384.187 26.4149ZM401.416 2.2H409.624V0.199997H401.416V2.2ZM408.624 1.2V39H410.624V1.2H408.624ZM409.624 38H400.984V40H409.624V38ZM401.984 39V14.43H399.984V39H401.984ZM400.178 13.8383L382.142 38.4083L383.754 39.5917L401.79 15.0217L400.178 13.8383ZM382.948 38H374.686V40H382.948V38Z" fill="#4B4B4B" fill-opacity="0.5"/>
</svg>
