<svg width="42" height="42" viewBox="0 0 42 42" fill="none" xmlns="http://www.w3.org/2000/svg">
<rect x="0.826172" y="0.513672" width="40.8446" height="40.8446" rx="5.10557" fill="#414141"/>
<path d="M16.841 29.5688C16.0809 29.5688 16.15 29.3214 15.9427 28.7029L13.7316 22.2087L30.6604 13.3022" fill="#C8DAEA"/>
<path d="M16.841 29.5688C17.3247 29.5688 17.6011 29.3214 17.9466 29.074L21.0559 26.4145L17.1865 24.3116" fill="#A9C9DD"/>
<path d="M17.1865 24.3116L26.5146 30.4347C27.4819 30.9914 28.3111 30.6821 28.5875 29.5688L32.3878 13.6115C32.7333 12.2508 31.7659 11.6323 30.7295 12.0652L8.54938 19.7347C7.09835 20.2295 7.09835 21.0335 8.273 21.3428L14.008 22.9509L27.1364 15.467C27.7583 15.1577 28.3111 15.2814 27.8965 15.7144" fill="#F6FBFE"/>
</svg>
