<svg width="42" height="42" viewBox="0 0 42 42" fill="none" xmlns="http://www.w3.org/2000/svg">
<rect x="0.826172" y="0.787109" width="40.8446" height="40.8446" rx="5.10557" fill="#414141"/>
<path fill-rule="evenodd" clip-rule="evenodd" d="M18.7689 17.0951C18.6869 16.9296 18.2133 15.7846 17.7768 14.7291C17.4978 14.0544 17.2317 13.411 17.1796 13.2865C16.688 12.1131 16.1447 12.1485 15.728 12.1756C15.7007 12.1774 15.6743 12.1791 15.6391 12.1791C15.4937 12.1791 15.3508 12.1701 15.2027 12.1607C15.0175 12.1489 14.8253 12.1367 14.6437 12.1367C14.4023 12.1367 14.0734 12.1869 13.7271 12.3492C13.4702 12.4695 13.2053 12.6507 12.9628 12.9175C12.9274 12.9557 12.9008 12.9838 12.8718 13.0142C12.2949 13.6214 11.0371 14.945 11.0371 17.4871C11.0371 20.1536 12.9578 22.6895 13.24 23.0619L13.239 23.0626L13.2416 23.0661L13.2448 23.0692C13.2558 23.0835 13.2966 23.1432 13.3568 23.2315C14.0662 24.2701 17.3271 29.0449 22.2842 30.9833C26.7813 32.7401 27.595 32.543 28.3219 32.3669C28.4456 32.3369 28.5664 32.3076 28.6971 32.2956C29.2857 32.2402 30.2487 31.8367 31.059 31.2702C31.7312 30.8003 32.318 30.2064 32.5426 29.581C32.743 29.0219 32.8564 28.5024 32.9089 28.0749C32.9853 27.4538 32.9248 26.9651 32.812 26.7764L32.8104 26.7748C32.6388 26.4917 32.3419 26.3514 31.8966 26.1409C31.8181 26.1038 31.7341 26.0641 31.6535 26.025L31.6537 26.0245C31.3467 25.8681 30.2844 25.3481 29.3763 24.9184C28.7895 24.6406 28.2681 24.402 28.0617 24.3279C27.7712 24.2234 27.5182 24.1445 27.2469 24.1751C26.9393 24.2098 26.671 24.3684 26.4223 24.7456L26.4215 24.7451C26.2966 24.933 26.0765 25.2147 25.836 25.5096C25.4551 25.9768 25.0007 26.5014 24.807 26.7217V26.7233C24.7243 26.8175 24.653 26.8689 24.5831 26.8773C24.486 26.889 24.3526 26.8492 24.1679 26.7584C24.0499 26.6993 23.9348 26.6495 23.7928 26.5882C23.0747 26.278 21.676 25.6738 20.0819 24.2607C19.5117 23.7555 19.0099 23.2031 18.5908 22.6848C17.9125 21.846 17.4541 21.0986 17.2719 20.7838C17.1282 20.537 17.2879 20.3769 17.4354 20.2293L17.4347 20.2284C17.5978 20.0653 17.7823 19.8432 17.9676 19.6203C18.0519 19.5188 18.1363 19.4172 18.2389 19.2989L18.2405 19.2973C18.4903 19.0065 18.5939 18.7946 18.7337 18.5088C18.758 18.4591 18.7835 18.4069 18.8092 18.3557L18.8107 18.3541C18.9336 18.1061 18.9651 17.8702 18.9422 17.6492C18.9209 17.4434 18.8522 17.2598 18.7682 17.0954L18.7689 17.0951L18.7689 17.0951Z" fill="#FFFFFE"/>
</svg>
