<svg width="71" height="70" viewBox="0 0 71 70" fill="none" xmlns="http://www.w3.org/2000/svg">
<g filter="url(#filter0_d_1740_20)">
<rect x="5.59961" width="60" height="60" rx="6" fill="#1A283B"/>
</g>
<path d="M53.2483 30.8485C53.717 30.3799 53.717 29.6201 53.2483 29.1515L45.6116 21.5147C45.1429 21.0461 44.3831 21.0461 43.9145 21.5147C43.4459 21.9833 43.4459 22.7431 43.9145 23.2118L50.7027 30L43.9145 36.7882C43.4459 37.2569 43.4459 38.0166 43.9145 38.4853C44.3832 38.9539 45.1429 38.9539 45.6116 38.4853L53.2483 30.8485ZM18.7998 31.2L52.3998 31.2L52.3998 28.8L18.7998 28.8L18.7998 31.2Z" fill="url(#paint0_linear_1740_20)"/>
<defs>
<filter id="filter0_d_1740_20" x="0.799609" y="0" width="69.6" height="69.6" filterUnits="userSpaceOnUse" color-interpolation-filters="sRGB">
<feFlood flood-opacity="0" result="BackgroundImageFix"/>
<feColorMatrix in="SourceAlpha" type="matrix" values="0 0 0 0 0 0 0 0 0 0 0 0 0 0 0 0 0 0 127 0" result="hardAlpha"/>
<feOffset dy="4.8"/>
<feGaussianBlur stdDeviation="2.4"/>
<feComposite in2="hardAlpha" operator="out"/>
<feColorMatrix type="matrix" values="0 0 0 0 0 0 0 0 0 0 0 0 0 0 0 0 0 0 0.25 0"/>
<feBlend mode="normal" in2="BackgroundImageFix" result="effect1_dropShadow_1740_20"/>
<feBlend mode="normal" in="SourceGraphic" in2="effect1_dropShadow_1740_20" result="shape"/>
</filter>
<linearGradient id="paint0_linear_1740_20" x1="30.6901" y1="30.5064" x2="36.1807" y2="37.1896" gradientUnits="userSpaceOnUse">
<stop stop-color="#EA7A3A"/>
<stop offset="1" stop-color="#F1A02D"/>
</linearGradient>
</defs>
</svg>
