<svg width="5608" height="1914" viewBox="0 0 5608 1914" fill="none" xmlns="http://www.w3.org/2000/svg">
<path d="M5278.85 283.134C5280.05 296.734 5282.98 307.534 5289.12 320.6C5295.78 334.734 5300.85 342.2 5312.32 354.067C5340.85 383.8 5377.52 398.734 5416.45 396.6C5481.25 393 5533.38 344.6 5539.25 282.6L5540.18 273H5494.85H5449.65L5448.05 282.334C5444.05 305.934 5430.45 317.8 5408.32 317.4C5388.72 317.134 5373.65 303.4 5370.18 282.867L5368.58 273H5323.38H5278.05L5278.85 283.134Z" fill="#174596"/>
<path d="M3855.12 294.334C3800.32 303.001 3755.25 333.934 3722.05 385.934C3677.92 455.001 3664.05 562.734 3687.25 657.001C3707.52 739.134 3752.72 793.267 3819.12 815.001C3845.52 823.667 3873.38 826.867 3906.05 824.867C3962.85 821.401 4001.52 804.867 4037.78 768.467C4061.38 744.734 4073.12 725.534 4084.45 691.267C4092.45 667.267 4098.45 635.134 4098.45 616.334V611.667H4017.12H3935.78V623.934C3935.78 660.867 3926.58 692.201 3911.78 705.534C3902.98 713.267 3894.45 716.201 3882.32 715.401C3866.05 714.201 3855.78 705.134 3847.92 685.001C3838.58 660.867 3836.58 638.201 3836.58 556.334C3836.58 475.134 3838.18 455.267 3847.52 428.334C3853.92 409.667 3863.65 403.001 3885.12 403.001C3897.78 403.001 3907.12 407.267 3916.72 417.401C3927.52 428.734 3932.05 444.201 3934.72 478.467L3936.18 498.334H4011.38H4086.45V495.267C4086.45 493.667 4085.78 485.401 4084.98 477.001C4077.38 394.067 4028.32 328.734 3955.12 303.934C3932.85 296.334 3919.12 294.201 3889.78 293.667C3875.12 293.401 3859.52 293.667 3855.12 294.334Z" fill="#174596"/>
<path d="M844.45 471.134L488.45 647.534L488.05 1115C487.917 1372.07 488.05 1582.33 488.45 1582.33C488.983 1582.33 501.25 1584.73 516.05 1587.67C663.383 1617.4 834.317 1630.47 1001.78 1625C1256.58 1616.73 1512.32 1577.53 1896.85 1488.2L1918.45 1483.13V1065.67V648.2L1561.12 471.267C1364.58 373.934 1202.98 294.334 1202.18 294.467C1201.25 294.6 1040.32 374.067 844.45 471.134ZM1516.85 607L1581.12 637.534V710.6C1581.12 771.534 1580.85 783.667 1579.25 783.667C1578.32 783.667 1540.32 770.467 1494.98 754.467L1412.45 725.267L1412.05 641.267L1411.78 557.134L1432.05 566.867C1443.25 572.2 1481.38 590.2 1516.85 607ZM1751.12 718.334C1780.45 732.334 1804.45 743.667 1804.72 743.667C1804.98 743.667 1805.12 770.6 1805.12 803.667C1805.12 836.6 1804.85 863.667 1804.45 863.667C1804.05 863.667 1778.85 854.867 1748.45 844.2L1693.12 824.6V758.067C1693.12 694.2 1693.25 691.534 1695.52 692.2C1696.85 692.734 1721.92 704.467 1751.12 718.334ZM1496.72 828.334C1539.38 841.134 1575.92 852.334 1577.78 853L1581.12 854.334V926.334V998.334L1578.18 997.667C1576.45 997.267 1539.78 990.467 1496.45 982.334C1453.25 974.334 1416.45 967.4 1414.85 967L1411.78 966.334V884.334V802.467L1415.52 803.667C1417.52 804.334 1454.05 815.4 1496.72 828.334ZM1797.78 919.4L1804.45 921.667L1804.85 980.6C1805.12 1029.67 1804.85 1039.67 1803.38 1039.67C1802.32 1039.67 1777.52 1035.13 1748.32 1029.67C1719.12 1024.2 1694.72 1019.67 1694.18 1019.67C1692.98 1019.67 1692.72 889.8 1693.78 888.734C1694.45 888.2 1776.18 912.334 1797.78 919.4ZM1495.52 1061.67C1541.12 1067.13 1578.98 1071.67 1579.78 1071.67C1580.72 1071.67 1581.12 1095.53 1581.12 1145.67V1219.67H1541.52C1519.65 1219.67 1481.52 1219.27 1456.85 1218.73L1411.78 1217.93V1134.73C1411.78 1089.13 1412.05 1051.67 1412.18 1051.67C1412.45 1051.67 1449.92 1056.2 1495.52 1061.67ZM1751.12 1092.33C1778.98 1095.67 1802.58 1098.73 1803.52 1099C1804.72 1099.4 1805.12 1112.87 1805.12 1160.33V1221L1749.52 1220.73L1693.78 1220.33L1693.38 1153.27L1693.12 1086.33H1696.72C1698.85 1086.33 1723.25 1089 1751.12 1092.33ZM1805.12 1350.2C1805.12 1383.27 1804.72 1410.47 1804.05 1410.87C1802.85 1411.53 1698.45 1430.33 1695.25 1430.33C1693.25 1430.33 1693.12 1424.87 1693.38 1362.6L1693.78 1295L1739.12 1292.87C1764.05 1291.67 1789.12 1290.6 1794.85 1290.6L1805.12 1290.33V1350.2ZM1580.85 1374.87C1580.98 1415.93 1580.72 1449.93 1580.18 1450.47C1579.25 1451.27 1416.32 1481 1412.85 1481C1412.18 1481 1411.78 1441.93 1411.78 1394.33C1411.78 1312.73 1411.92 1307.67 1414.18 1307.53C1415.38 1307.53 1452.18 1305.8 1495.78 1303.67C1539.38 1301.67 1576.32 1300.07 1577.78 1300.2C1580.45 1300.33 1580.45 1301.4 1580.85 1374.87Z" fill="#054C97"/>
<path d="M1202 1614V294.5L487.5 648V1584.5C763.5 1633 936.5 1634 1202 1614Z" fill="#313779"/>
<path d="M2138.05 305.933C2137.52 306.333 2137.12 346.333 2137.12 394.6V482.333H2182.18H2227.38L2231.78 455.933C2234.05 441.533 2236.85 427.667 2237.92 425.267C2240.72 418.467 2246.58 416.6 2268.18 415.933L2286.58 415.4L2286.18 560.467C2285.78 702.6 2285.78 705.8 2283.12 711C2279.25 718.867 2275.25 720.2 2255.52 720.733L2238.45 721.267V767.133V813H2352.45H2466.45V767.133V721.267L2449.52 720.733C2428.72 720.2 2425.12 718.733 2421.52 709.4C2419.25 703.267 2419.12 695.667 2419.12 559.667V416.333H2437.78C2458.98 416.467 2464.05 417.933 2467.12 425.4C2468.05 427.8 2470.85 441.533 2473.12 455.933L2477.52 482.333H2522.05H2566.45V393.667V305H2352.72C2235.12 305 2138.45 305.4 2138.05 305.933Z" fill="#174596"/>
<path d="M2719.38 423.134C2686.58 428.2 2660.05 441.667 2637.52 464.6C2601.52 501.267 2579.78 559.667 2579.78 619.8C2579.78 645.534 2586.45 690.867 2593.12 711.667C2594.72 716.467 2598.58 725.8 2601.65 732.467C2625.65 783.267 2668.32 813.4 2726.18 820.467C2742.98 822.6 2747.52 822.6 2762.05 821.134C2822.18 815.267 2864.85 786.6 2890.98 734.867C2905.25 706.734 2913.25 666.067 2913.25 622.334C2913.38 559.267 2896.85 510.867 2861.38 469.267C2831.12 433.8 2772.58 414.867 2719.38 423.134ZM2757.78 506.467C2770.18 509.534 2778.98 522.067 2782.72 541.667C2785.12 554.867 2785.12 666.734 2782.72 686.2C2780.32 705.134 2776.45 719.4 2772.05 725.667C2762.45 739.534 2739.52 742.467 2726.98 731.4C2720.05 725.267 2716.05 716.2 2712.98 699.267C2710.45 685.934 2710.05 677.8 2709.52 623.4C2708.72 546.334 2710.05 532.334 2719.38 518.067C2726.85 507 2741.78 502.467 2757.78 506.467Z" fill="#174596"/>
<path d="M3160.72 422.334C3144.05 425.267 3124.05 433.534 3110.58 442.734C3107.38 445.001 3100.58 451.001 3095.65 456.201C3090.58 461.267 3086.05 465.001 3085.52 464.467C3084.85 463.934 3082.05 455.934 3079.12 446.601L3073.65 429.667L3010.72 429.267L2947.78 429.001V467.001V505.001H2956.85C2968.72 505.001 2974.58 507.801 2976.85 514.867C2978.18 518.867 2978.45 557.801 2978.18 700.201C2977.78 895.934 2978.18 884.067 2970.58 887.801C2968.58 888.601 2962.72 889.667 2957.52 890.067L2947.78 890.734V928.467V966.334H3036.45H3125.12V928.467V890.734L3115.52 890.067C3110.18 889.667 3104.32 888.601 3102.32 887.801C3095.25 884.467 3095.12 883.534 3094.72 839.134L3094.32 798.067L3099.78 802.734C3107.65 809.401 3119.38 815.267 3131.38 818.601C3139.92 821.001 3145.38 821.401 3161.78 821.401C3185.78 821.267 3196.58 819.001 3215.78 809.401C3226.45 804.201 3230.32 801.401 3240.45 791.134C3266.98 764.601 3283.92 729.934 3292.98 684.334C3298.98 653.401 3300.32 641.001 3300.18 614.334C3300.05 576.467 3295.25 542.067 3285.78 510.867C3275.38 476.867 3268.32 463.001 3253.65 448.201C3236.72 431.134 3213.78 422.467 3183.12 421.534C3174.32 421.401 3164.18 421.667 3160.72 422.334ZM3147.25 507.001C3158.85 510.467 3164.72 518.734 3168.72 537.134C3170.85 547.134 3171.12 555.667 3171.12 619.001C3171.12 673.934 3170.72 691.401 3169.25 697.667C3163.52 723.001 3152.05 736.067 3133.92 737.934C3120.45 739.267 3103.38 729.401 3097.12 716.467C3094.45 710.734 3094.45 709.401 3094.72 623.534L3095.12 536.334L3099.25 527.534C3106.72 511.934 3116.72 505.267 3133.25 505.134C3137.25 505.001 3143.65 505.934 3147.25 507.001Z" fill="#174596"/>
<path d="M4695.78 423.534C4672.32 428.601 4650.85 440.467 4636.05 456.334C4631.52 461.134 4627.25 465.001 4626.58 465.001C4625.92 465.001 4622.72 456.867 4619.65 447.001L4614.05 429.001H4550.85H4487.78V467.001V505.001H4496.85C4507.12 505.001 4514.18 507.801 4516.72 513.001C4518.05 515.667 4518.45 555.401 4518.45 697.667C4518.45 875.001 4518.32 879.134 4515.78 883.267C4512.85 888.201 4506.85 890.334 4495.52 890.334H4487.78V928.334V966.334L4576.85 966.067L4665.78 965.667L4666.18 927.934L4666.45 890.334L4658.18 890.201C4647.65 890.201 4641.52 888.067 4637.92 883.267C4635.25 879.667 4635.12 877.667 4634.72 838.867L4634.32 798.201L4642.72 804.467C4660.05 817.267 4674.58 821.534 4701.78 821.534C4747.65 821.401 4776.45 805.001 4803.12 763.667C4815.92 743.934 4824.32 723.801 4830.45 697.667C4838.72 662.867 4841.78 635.134 4840.72 605.001C4839.12 560.601 4832.18 524.467 4818.32 487.667C4811.12 468.601 4806.32 460.867 4793.78 448.334C4775.78 430.201 4756.05 422.601 4724.45 421.534C4710.85 421.134 4704.72 421.534 4695.78 423.534ZM4693.52 509.401C4701.12 513.934 4705.78 521.401 4708.72 533.801C4710.58 541.534 4710.98 554.201 4711.38 612.734C4711.78 659.267 4711.52 685.667 4710.45 692.067C4706.18 720.601 4694.05 735.934 4674.32 737.934C4660.72 739.267 4645.92 731.001 4638.45 717.801L4634.45 711.001V626.867C4634.45 545.934 4634.58 542.201 4637.12 533.801C4643.38 513.667 4655.92 504.601 4676.58 505.401C4685.38 505.801 4688.45 506.467 4693.52 509.401Z" fill="#174596"/>
<path d="M5001.12 422.334C4966.45 427.134 4941.92 439.134 4917.65 463C4882.18 497.8 4862.85 543.4 4858.45 602.2C4854.85 648.734 4866.05 710.734 4883.38 740.867C4902.85 774.6 4924.58 794.6 4956.98 808.2C4974.45 815.667 4982.72 817.8 5003.12 820.467C5043.12 825.8 5086.32 815.934 5119.65 793.8C5137.38 781.934 5157.38 757.934 5169.52 733.667C5180.05 712.6 5186.98 683 5190.58 644.334C5194.18 604.734 5187.12 555.667 5173.25 523.667C5156.05 484.067 5129.92 454.2 5099.12 438.734C5088.18 433.134 5073.25 427.934 5059.78 424.867C5046.72 421.8 5014.72 420.467 5001.12 422.334ZM5037.25 507C5044.05 509.534 5050.98 515.667 5054.58 522.6C5060.85 534.867 5061.52 541 5062.05 601.667C5062.85 673.934 5060.72 701.667 5052.85 719.934C5042.98 743.134 5010.58 744.867 4997.78 723.134C4993.38 715.667 4989.52 695.934 4987.65 670.867C4985.38 642.334 4986.85 548.734 4989.65 536.467C4993.12 521.4 5000.72 510.867 5011.12 507.134C5018.18 504.6 5030.05 504.467 5037.25 507Z" fill="#174596"/>
<path d="M3334.45 467V505H3344.18C3355.12 505 3361.38 507.8 3364.18 514.067C3366.32 518.733 3367.25 705.533 3365.25 719.933C3363.38 733.8 3360.58 736.2 3345.78 736.867L3334.45 737.267V775.133V813H3423.78H3513.12V775.133V737.267L3501.92 736.867C3488.32 736.2 3484.72 733.8 3482.58 723.4C3481.65 719.133 3481.12 681.533 3481.12 614.867V512.733L3500.98 513.267C3522.85 513.667 3525.78 514.733 3530.72 523.133C3532.58 526.467 3536.32 542.733 3539.12 559.933L3539.92 565H3575.78H3611.78V497V429H3473.12H3334.45V467Z" fill="#174596"/>
<path d="M4111.78 497.667V566.333H4149.12C4169.65 566.333 4186.45 565.933 4186.45 565.267C4186.58 559.933 4190.85 527.4 4191.92 524.067C4192.72 521.667 4195.12 518.2 4197.25 516.333C4200.98 513.267 4202.45 513 4213.25 513H4225.12V615C4225.12 681.533 4224.58 719.133 4223.65 723.4C4221.52 733.8 4217.92 736.2 4204.32 736.867L4193.12 737.267V775.133V813H4282.45H4371.78V775V737H4362.45C4351.38 737 4346.18 734.733 4342.85 728.6C4340.58 724.6 4340.45 716.733 4340.05 618.6L4339.65 513H4350.98C4357.25 513 4363.92 513.667 4365.78 514.6C4372.45 517.667 4375.52 527.933 4377.78 555.933L4378.72 566.333H4416.58H4454.45V497.667V429H4283.12H4111.78V497.667Z" fill="#174596"/>
<path d="M5225.12 467V505H5234.18C5244.45 505 5251.52 507.8 5254.05 513C5255.38 515.667 5255.65 539.267 5255.38 622.6L5255.12 729L5251.38 732.6C5248.05 735.933 5246.72 736.333 5236.45 736.867L5225.12 737.267V775.133V813H5291.52H5357.78L5400.45 716.733C5424.05 663.8 5443.92 620.333 5444.85 619.933C5446.98 619.267 5447.12 719.133 5444.98 726.733C5443.25 733.267 5437.38 737 5428.85 737H5422.45V775V813H5507.78H5593.12V775V737H5583.52C5571.25 737 5565.92 734.2 5563.92 726.733C5561.78 719.133 5562.05 520.6 5564.18 514.333C5566.45 507.933 5572.58 505 5584.18 505H5593.12V467V429L5525.52 429.267L5458.05 429.667L5417.12 522.733C5394.58 573.933 5375.38 616.6 5374.58 617.4C5373.65 618.333 5372.98 618.2 5372.45 616.733C5372.05 615.667 5371.78 592.6 5372.05 565.533C5372.32 526.867 5372.85 515.533 5374.32 512.733C5376.58 508.2 5383.25 505 5390.32 505H5395.78V467V429H5310.45H5225.12V467Z" fill="#174596"/>
<path d="M3874.05 1025.8C3795.12 1040.07 3738.45 1115.93 3727.65 1221.67C3725.65 1241.8 3726.85 1288.47 3729.78 1307.67C3738.98 1366.87 3762.72 1415.4 3796.18 1443.4C3834.58 1475.67 3887.12 1488.07 3945.78 1479C4005.52 1469.67 4051.52 1433.13 4073.52 1377.53C4082.18 1355.8 4088.98 1324.2 4089.12 1305.27V1298.33H4020.05H3950.98L3949.38 1317.93C3946.32 1356.33 3937.52 1376.6 3920.45 1384.47C3906.05 1391.27 3889.25 1386.87 3880.32 1373.93C3867.12 1354.87 3863.78 1329.8 3863.78 1250.33C3863.78 1177.93 3866.58 1151.67 3876.05 1133.13C3879.65 1126.07 3881.52 1123.93 3886.45 1121.4C3900.72 1114.07 3918.45 1116.47 3930.18 1127C3941.92 1137.53 3947.38 1154.2 3948.72 1183.93L3949.52 1199.67H4013.92H4078.45V1190.47C4078.45 1177.93 4074.18 1153.67 4069.25 1138.87C4060.72 1112.6 4047.25 1090.87 4027.25 1070.87C4002.05 1045.8 3973.78 1031.67 3936.45 1025.67C3921.38 1023.13 3888.05 1023.27 3874.05 1025.8Z" fill="#008A44"/>
<path d="M2146.45 1074.33V1114.33H2161.12C2177.52 1114.33 2181.65 1115.53 2184.85 1121.53C2186.98 1125.27 2187.12 1136.47 2187.52 1247.53C2187.78 1327.67 2187.38 1371.8 2186.45 1376.73C2185.52 1381.67 2183.92 1385.4 2181.78 1387.67C2178.58 1390.73 2177.38 1391 2162.45 1391.4L2146.45 1391.93V1431.8V1471.67H2217.52H2288.45L2329.78 1363.67C2363.12 1276.47 2371.52 1255.67 2373.38 1255.67C2375.65 1255.67 2375.78 1259.13 2375.78 1317.27C2375.78 1373.4 2375.52 1379.4 2373.38 1383.67C2370.32 1389.93 2366.32 1391.67 2354.18 1391.67H2343.78V1431.67V1471.67H2437.78H2531.78V1431.67V1391.67H2517.12C2506.85 1391.67 2501.12 1391.13 2498.58 1389.8C2490.85 1385.67 2491.12 1391.27 2490.72 1257C2490.45 1167.8 2490.72 1131.67 2491.78 1126.6C2494.05 1116.07 2497.52 1114.33 2516.85 1114.33H2531.78V1074.33V1034.33L2460.98 1034.6L2390.18 1035L2350.32 1142.33C2328.45 1201.4 2309.52 1252.2 2308.32 1255.27C2306.85 1259.4 2305.52 1261 2303.65 1261C2300.98 1261 2300.98 1259.93 2301.38 1193.93C2301.78 1142.33 2302.32 1125.93 2303.65 1122.6C2306.18 1116.47 2311.12 1114.33 2323.12 1114.33H2333.12V1074.33V1034.33H2239.78H2146.45V1074.33Z" fill="#008A44"/>
<path d="M2561.12 1074.33V1114.33H2576.45C2591.52 1114.33 2591.78 1114.47 2596.05 1118.2L2600.45 1122.07L2600.85 1250.6C2601.12 1370.87 2600.98 1379.27 2598.85 1383.67C2595.38 1390.47 2591.78 1391.67 2575.52 1391.67H2561.12V1431.67V1471.67H2649.78H2738.45V1431.67V1391.67H2733.12C2726.05 1391.67 2721.38 1389.27 2718.72 1384.47C2716.72 1380.87 2716.45 1374.33 2716.05 1333.93L2715.65 1287.67H2755.65H2795.78V1333.27C2795.78 1374.2 2795.52 1379.53 2793.38 1383.67C2790.72 1389.13 2786.32 1391.67 2779.52 1391.67H2774.45V1431.67V1471.67H2863.12H2951.78V1431.67V1391.67H2937.12C2920.18 1391.67 2915.78 1390.2 2912.98 1383.4C2910.18 1376.87 2910.18 1129.13 2912.98 1122.6C2915.78 1115.8 2920.18 1114.33 2937.12 1114.33H2951.78V1074.33V1034.33H2863.12H2774.45V1074.33V1114.33H2780.45C2785.12 1114.33 2787.38 1115.13 2790.72 1118.2L2795.12 1122.07L2795.52 1157.53L2795.92 1193H2755.78H2715.52L2716.05 1159.27C2716.32 1130.87 2716.85 1125 2718.72 1121.53C2721.38 1116.73 2726.05 1114.33 2733.12 1114.33H2738.45V1074.33V1034.33H2649.78H2561.12V1074.33Z" fill="#008A44"/>
<path d="M3002.45 1073.53V1112.73L3018.85 1113.27C3028.05 1113.53 3036.45 1114.47 3038.05 1115.4C3045.78 1119.67 3047.25 1130.07 3045.25 1165C3041.78 1222.73 3031.38 1301.13 3023.65 1327C3019.38 1341.27 3012.18 1354.07 3003.12 1363.27C2996.18 1370.2 2993.52 1371.8 2985.92 1374.2C2980.85 1375.8 2975.12 1377 2972.98 1377H2969.12V1472.33V1567.67L3008.72 1567.4L3048.45 1567L3053.52 1529C3056.32 1508.07 3059.12 1488.87 3059.78 1486.2C3061.65 1479.27 3065.78 1474.6 3071.52 1473C3074.72 1472.2 3108.85 1471.67 3166.18 1471.67C3240.72 1471.67 3256.58 1471.93 3260.45 1473.53C3269.38 1477.27 3272.72 1489.67 3276.45 1535C3277.65 1548.87 3278.85 1561.93 3279.25 1563.93L3280.05 1567.67H3319.25H3358.45V1472.33V1377H3343.78C3326.85 1377 3322.45 1375.53 3319.65 1368.73C3316.98 1362.47 3316.32 1135.67 3318.72 1125.8C3321.38 1115.53 3324.72 1113.8 3343.25 1113.13L3358.45 1112.73V1073.53V1034.33H3180.45H3002.45V1073.53ZM3203.52 1252.6L3203.78 1377H3157.78C3132.45 1377 3111.78 1376.73 3111.78 1376.47C3111.78 1376.2 3113.25 1369.67 3114.98 1362.07C3126.72 1311.53 3132.85 1251.93 3136.58 1151.93L3137.52 1127.67L3170.32 1127.93L3203.12 1128.33L3203.52 1252.6Z" fill="#008A44"/>
<path d="M3359.78 1074.33V1114.33H3370.32C3384.98 1114.33 3388.05 1115.67 3394.58 1125.4C3401.52 1135.8 3404.45 1141.93 3456.45 1255.67C3492.98 1335.67 3499.12 1350.2 3498.18 1353C3496.45 1357.67 3490.58 1363.67 3485.52 1365.8C3479.65 1368.33 3460.18 1368.2 3449.92 1365.53C3442.45 1363.53 3425.38 1355.93 3421.52 1352.73C3420.18 1351.67 3419.78 1363.53 3419.78 1411.27V1471.27L3429.52 1474.07C3456.85 1482.2 3496.45 1484.07 3519.12 1478.47C3550.58 1470.87 3574.18 1451.53 3588.98 1421.67C3594.98 1409.67 3679.92 1171.13 3686.98 1146.6C3692.05 1129 3694.05 1124.33 3698.72 1120.07C3703.38 1115.67 3708.32 1114.33 3719.25 1114.33H3729.12V1074.33V1034.33H3659.12H3589.12V1074.33V1114.33H3594.98C3606.85 1114.33 3610.05 1120.87 3605.92 1136.73C3601.38 1153.53 3575.25 1231.67 3574.32 1230.73C3573.38 1229.67 3532.58 1140.73 3530.32 1134.6C3529.52 1132.73 3528.98 1128.47 3528.85 1125.13C3528.72 1117.53 3532.18 1114.33 3540.58 1114.33H3546.45V1074.33V1034.33H3453.12H3359.78V1074.33Z" fill="#008A44"/>
<path d="M4098.45 1110.33V1186.33H4136.85H4175.12L4178.85 1163.4C4180.85 1150.73 4183.25 1138.87 4184.18 1137C4187.12 1130.87 4193.38 1129 4210.85 1129H4226.45V1248.6C4226.45 1320.07 4225.92 1371.53 4225.12 1376.33C4224.18 1381.8 4222.85 1385.27 4220.45 1387.67C4217.25 1390.87 4216.18 1391 4201.12 1391.4L4185.12 1391.93V1431.8V1471.67H4283.12H4381.12V1431.8V1391.93L4365.12 1391.4C4350.18 1391 4348.98 1390.73 4345.78 1387.67C4343.78 1385.53 4342.05 1381.67 4341.12 1377.13C4340.32 1372.6 4339.78 1325.93 4339.78 1249.53V1129H4355.52C4372.58 1129 4378.98 1130.87 4381.92 1136.73C4382.72 1138.47 4385.12 1150.33 4387.25 1163.13L4390.98 1186.33H4429.38H4467.78V1110.33V1034.33H4283.12H4098.45V1110.33Z" fill="#008A44"/>
<path d="M4486.45 1074.33V1114.33H4501.12C4511.52 1114.33 4516.98 1114.87 4519.65 1116.33C4527.38 1120.2 4527.12 1115.8 4527.12 1253C4527.12 1390.2 4527.38 1385.8 4519.65 1389.67C4516.98 1391.13 4511.52 1391.67 4501.12 1391.67H4486.45V1431.67V1471.67H4584.45H4682.45V1431.67V1391.67H4668.18C4642.98 1391.67 4642.45 1390.87 4642.45 1348.2V1317.4L4672.18 1316.6C4742.58 1314.73 4781.92 1300.47 4807.38 1267.27C4825.52 1243.8 4833.92 1205.93 4830.45 1163.13C4824.72 1089.8 4785.92 1050.6 4707.65 1039.13C4680.45 1035.13 4658.18 1034.33 4572.98 1034.33H4486.45V1074.33ZM4676.85 1133C4684.72 1136.47 4690.85 1142.73 4694.98 1151.53C4697.25 1156.73 4697.65 1160.2 4697.65 1173.67C4697.65 1193.67 4694.72 1202.47 4685.12 1211.8C4677.52 1219.27 4669.78 1222.07 4654.18 1223.27L4642.45 1224.07V1176.33V1128.6L4656.18 1129.27C4666.32 1129.8 4671.52 1130.73 4676.85 1133Z" fill="#008A44"/>
<path d="M4846.45 1074.33V1114.33H4861.12C4871.52 1114.33 4876.98 1114.87 4879.65 1116.33C4887.38 1120.2 4887.12 1115.8 4887.12 1253C4887.12 1390.2 4887.38 1385.8 4879.65 1389.67C4876.98 1391.13 4871.52 1391.67 4861.12 1391.67H4846.45V1431.67V1471.67H4917.65H4988.72L4999.38 1443.93C5005.12 1428.73 5023.65 1380.2 5040.45 1335.93C5067.65 1264.73 5071.38 1255.67 5073.78 1255.93C5076.45 1256.33 5076.45 1257.4 5076.45 1317.67C5076.45 1377.13 5076.32 1379.13 5073.65 1383.67C5070.05 1390.07 5066.18 1391.67 5054.85 1391.67H5045.12V1431.67V1471.67H5138.45H5231.78V1431.67V1391.67H5217.12C5206.72 1391.67 5201.25 1391.13 5198.58 1389.67C5190.85 1385.8 5191.12 1390.2 5191.12 1253C5191.12 1115.8 5190.85 1120.2 5198.58 1116.33C5201.25 1114.87 5206.72 1114.33 5217.12 1114.33H5231.78V1074.33V1034.33H5161.25H5090.72L5088.58 1039.93C5087.38 1043.13 5068.45 1093.93 5046.58 1153C5017.78 1230.47 5006.18 1260.47 5004.58 1260.73C5002.58 1261.13 5002.45 1255.67 5002.72 1191.67L5003.12 1122.07L5007.52 1118.2C5011.52 1114.6 5012.58 1114.33 5022.45 1114.33H5033.12V1074.33V1034.33H4939.78H4846.45V1074.33Z" fill="#008A44"/>
<path d="M5400.45 1035.8C5381.38 1037.4 5360.72 1040.87 5350.58 1043.93C5322.45 1052.6 5296.18 1073.27 5285.92 1094.73C5273.25 1120.87 5270.98 1161.67 5280.45 1191.53C5289.38 1219.4 5311.52 1241.67 5340.72 1251.8C5350.45 1255.13 5365.25 1258.33 5371.12 1258.33C5377.25 1258.33 5379.78 1259.53 5379.78 1262.47C5379.78 1265.4 5380.45 1265.27 5364.45 1268.2C5345.25 1271.93 5334.05 1277.27 5323.65 1287.53C5312.98 1298.33 5307.78 1307.13 5302.32 1324.33C5295.38 1346.33 5290.18 1350.6 5274.45 1347.93C5269.52 1347.13 5264.58 1346.07 5263.38 1345.53C5261.25 1344.73 5261.12 1349.53 5261.12 1408.2V1471.8L5269.52 1475.67C5283.65 1482.33 5308.85 1483.93 5332.45 1479.53C5352.72 1475.8 5369.38 1460.33 5381.78 1433.93C5387.12 1422.6 5398.58 1387.93 5406.98 1357.27C5410.32 1345.4 5414.58 1332.2 5416.58 1328.2C5423.65 1313.27 5432.98 1306.47 5446.18 1306.33H5453.12V1341.27C5453.12 1361.8 5452.45 1378.47 5451.65 1381.4C5449.92 1387.8 5444.05 1391.67 5436.18 1391.67H5430.45V1431.67V1471.67H5519.12H5607.78V1431.67V1391.67H5593.78C5578.72 1391.67 5574.45 1390.47 5570.85 1385.13C5568.58 1381.93 5568.45 1373.53 5568.05 1257.67C5567.78 1189.4 5568.05 1131.13 5568.45 1127.93C5568.98 1124.87 5570.72 1120.6 5572.45 1118.6C5575.52 1115.13 5576.05 1115 5591.65 1114.6L5607.78 1114.07V1074.2V1034.33L5510.85 1034.47C5457.38 1034.6 5407.78 1035.27 5400.45 1035.8ZM5453.12 1170.47V1212.07L5438.85 1211.27C5421.52 1210.47 5416.05 1208.73 5408.45 1202.07C5400.32 1194.87 5395.52 1184.6 5394.72 1172.47C5393.78 1158.07 5396.32 1148.47 5402.72 1141.53C5410.58 1132.87 5421.78 1129.53 5443.52 1129.13L5453.12 1129V1170.47Z" fill="#008A44"/>
<path d="M488 342.683L1204 0V210.75L488 562V342.683Z" fill="#FF6D17"/>
<path d="M1918 342.683L1202 0V210.75L1918 562V342.683Z" fill="#FF9700"/>
<path d="M0 835.364H108.352V1662.89C127.156 1766.6 174.961 1790.51 241.708 1826.4C308.455 1862.28 477.683 1925.76 754 1912C1151.77 1892.19 1932 1631.19 1932 1631.19L1907 1609.5C1907 1609.5 1141.45 1810.68 754 1797C603.099 1791.67 468.068 1741.43 387.205 1703.99C336.99 1680.75 308.387 1629.24 308.387 1573.9V835.364H421.739L208.369 485L0 835.364Z" fill="#FF6D17"/>
<circle cx="1955.5" cy="1606.5" r="69.5" fill="#FF6D17"/>
</svg>
