<svg width="17" height="19" viewBox="0 0 17 19" fill="none" xmlns="http://www.w3.org/2000/svg">
<path fill-rule="evenodd" clip-rule="evenodd" d="M6.00023 4.63142C5.93657 4.47687 5.56906 3.40732 5.23035 2.42148C5.01383 1.79124 4.80732 1.19023 4.76683 1.07398C4.38536 -0.0220165 3.96375 0.0110251 3.64037 0.0363398C3.61913 0.0379889 3.59868 0.039608 3.57134 0.039608C3.45849 0.039608 3.3476 0.0311492 3.23267 0.0223849C3.08899 0.0113914 2.93985 0 2.7989 0C2.61153 0 2.35629 0.046846 2.08754 0.198435C1.88823 0.310843 1.68261 0.480112 1.49442 0.729268C1.46697 0.764997 1.4463 0.791198 1.42384 0.819628C0.976083 1.3868 0 2.62315 0 4.99758C0 7.48832 1.49052 9.85698 1.70954 10.2048L1.70876 10.2055L1.71078 10.2087L1.71324 10.2117C1.72183 10.225 1.75346 10.2808 1.80021 10.3632C2.35068 11.3334 4.8813 15.7933 8.72825 17.6039C12.2182 19.245 12.8497 19.0608 13.4138 18.8963C13.5098 18.8683 13.6036 18.841 13.705 18.8297C14.1618 18.7779 14.9091 18.4011 15.5379 17.872C16.0596 17.433 16.5149 16.8782 16.6893 16.2941C16.8448 15.7718 16.9328 15.2866 16.9736 14.8873C17.0328 14.3072 16.9859 13.8507 16.8983 13.6744L16.8971 13.6729C16.7639 13.4085 16.5335 13.2774 16.188 13.0808C16.127 13.0461 16.0619 13.0091 15.9993 12.9726L15.9995 12.9721C15.7612 12.8261 14.9368 12.3403 14.2321 11.9389C13.7767 11.6795 13.3721 11.4566 13.2118 11.3873C12.9865 11.2898 12.7901 11.2161 12.5796 11.2446C12.3409 11.2771 12.1326 11.4252 11.9396 11.7775L11.939 11.7771C11.8421 11.9526 11.6713 12.2157 11.4847 12.4912C11.1891 12.9276 10.8364 13.4176 10.6861 13.6233V13.6248C10.6219 13.7128 10.5666 13.7608 10.5123 13.7687C10.437 13.7796 10.3335 13.7425 10.1901 13.6576C10.0985 13.6024 10.0092 13.5559 9.89905 13.4986C9.34173 13.2089 8.2563 12.6445 7.01922 11.3246C6.57671 10.8527 6.18728 10.3367 5.86202 9.85261C5.33563 9.06908 4.97988 8.37102 4.83853 8.07697C4.72695 7.84638 4.85092 7.6969 4.96539 7.55896L4.9648 7.55817C5.09139 7.40582 5.23461 7.19835 5.37838 6.99017C5.44384 6.89535 5.50932 6.80047 5.58897 6.68992L5.59018 6.68843C5.78405 6.4168 5.8644 6.21894 5.97289 5.95195C5.99177 5.90547 6.01156 5.85677 6.03148 5.80891L6.0327 5.80745C6.12808 5.57582 6.15249 5.35543 6.13472 5.149C6.11823 4.95683 6.06486 4.78533 5.99973 4.63169L6.00021 4.63142L6.00023 4.63142Z" fill="#FF6D17"/>
</svg>
