<svg width="13" height="13" viewBox="0 0 13 13" fill="none" xmlns="http://www.w3.org/2000/svg">
<circle cx="6.5" cy="6.5" r="6.5" fill="#EA7A3A"/>
<path d="M4.35355 3.64645C4.15829 3.45118 3.84171 3.45118 3.64645 3.64645C3.45118 3.84171 3.45118 4.15829 3.64645 4.35355L4.35355 3.64645ZM8.64645 9.35355C8.84171 9.54882 9.15829 9.54882 9.35355 9.35355C9.54882 9.15829 9.54882 8.84171 9.35355 8.64645L8.64645 9.35355ZM9.35355 4.35355C9.54882 4.15829 9.54882 3.84171 9.35355 3.64645C9.15829 3.45118 8.84171 3.45118 8.64645 3.64645L9.35355 4.35355ZM3.64645 8.64645C3.45118 8.84171 3.45118 9.15829 3.64645 9.35355C3.84171 9.54882 4.15829 9.54882 4.35355 9.35355L3.64645 8.64645ZM3.64645 4.35355L6.14645 6.85355L6.85355 6.14645L4.35355 3.64645L3.64645 4.35355ZM6.14645 6.85355L8.64645 9.35355L9.35355 8.64645L6.85355 6.14645L6.14645 6.85355ZM6.85355 6.85355L9.35355 4.35355L8.64645 3.64645L6.14645 6.14645L6.85355 6.85355ZM8.64645 3.64645L3.64645 8.64645L4.35355 9.35355L9.35355 4.35355L8.64645 3.64645Z" fill="white"/>
</svg>
